<svg xmlns="http://www.w3.org/2000/svg" viewBox="0 0 512 512" width="512" height="512">
  <rect width="512" height="512" rx="112" fill="#090d16"/>
  <circle cx="256" cy="256" r="200" fill="#064e3b"/>
  <!-- Buildings -->
  <path d="M100 396H412" stroke="#10b981" stroke-width="16" stroke-linecap="round"/>
  <path d="M136 396V200L256 124V396H136Z" fill="#10b981"/>
  <path d="M256 396V96L376 172V396H256Z" fill="#34d399"/>
  <!-- Windows -->
  <rect x="168" y="232" width="26" height="32" rx="6" fill="#ffffff" opacity="0.85"/>
  <rect x="204" y="232" width="26" height="32" rx="6" fill="#ffffff" opacity="0.85"/>
  <rect x="168" y="284" width="26" height="32" rx="6" fill="#ffffff" opacity="0.85"/>
  <rect x="204" y="284" width="26" height="32" rx="6" fill="#ffffff" opacity="0.85"/>
  <rect x="286" y="200" width="26" height="32" rx="6" fill="#090d16" opacity="0.7"/>
  <rect x="324" y="200" width="26" height="32" rx="6" fill="#090d16" opacity="0.7"/>
  <rect x="286" y="258" width="26" height="32" rx="6" fill="#090d16" opacity="0.7"/>
  <rect x="324" y="258" width="26" height="32" rx="6" fill="#090d16" opacity="0.7"/>
  <!-- Gold Door/Accent -->
  <path d="M234 396V348C234 336 244 326 256 326C268 326 278 336 278 348V396" fill="#090d16" stroke="#fbbf24" stroke-width="10"/>
</svg>
